<?xml version="1.0" standalone="no"?>
<!DOCTYPE svg PUBLIC "-//W3C//DTD SVG 20010904//EN"
 "http://www.w3.org/TR/2001/REC-SVG-20010904/DTD/svg10.dtd">
<svg version="1.0" xmlns="http://www.w3.org/2000/svg"
 width="550.000000pt" height="550.000000pt" viewBox="0 0 550.000000 550.000000"
 preserveAspectRatio="xMidYMid meet">
<metadata>
Created by potrace 1.11, written by Peter Selinger 2001-2013
</metadata>
<g transform="translate(0.000000,550.000000) scale(0.100000,-0.100000)"
fill="#000000" stroke="none">
<path d="M0 2750 l0 -2750 1140 0 1140 0 -5 28 c-3 15 -10 54 -16 87 -6 33
-14 105 -19 160 -5 55 -16 136 -24 180 -38 209 -50 349 -35 413 5 20 12 74 15
119 l6 82 -26 7 c-33 8 -57 -1 -63 -25 -6 -24 -39 -41 -83 -44 -47 -4 -93 -35
-87 -59 4 -15 1 -18 -14 -13 -22 7 -108 -69 -164 -145 -18 -25 -60 -72 -93
-106 -51 -52 -132 -163 -132 -180 0 -14 -88 -87 -130 -109 -25 -12 -77 -31
-115 -40 -39 -10 -76 -22 -83 -27 -6 -6 -42 -12 -78 -14 -65 -3 -66 -3 -62 20
4 19 1 23 -11 18 -22 -8 49 53 74 63 19 8 19 9 -4 13 -13 2 -26 -1 -30 -6 -9
-14 -51 4 -51 22 0 8 29 33 65 55 89 56 157 122 161 155 3 25 -18 37 -30 17
-8 -12 -62 -22 -81 -15 -22 9 -18 27 5 21 11 -3 20 -1 20 4 0 5 -4 9 -8 9 -17
0 -9 40 13 62 52 51 131 89 216 103 46 7 85 18 87 24 2 6 11 11 21 11 23 0
100 70 152 137 40 52 41 54 23 69 -18 14 -18 14 4 4 13 -7 26 -10 28 -8 30 31
124 177 120 190 -2 9 3 18 13 21 9 2 38 39 64 81 38 63 46 81 36 92 -7 8 -9
17 -5 21 3 3 6 1 6 -5 0 -28 28 -8 57 41 44 73 48 94 26 119 -15 18 -15 20 -2
16 14 -6 17 7 21 95 4 81 2 107 -10 127 -11 18 -12 21 -2 13 8 -7 17 -13 21
-13 3 0 16 31 28 69 21 66 21 72 6 101 -13 25 -20 30 -38 24 -50 -16 -52 -16
-33 0 11 9 26 16 34 16 10 0 12 7 8 25 -4 14 -2 25 4 25 5 0 10 -7 10 -15 0
-20 8 -19 49 6 30 18 33 23 27 57 -3 20 -9 56 -12 80 l-7 43 -51 -1 c-28 -1
-73 -1 -101 0 l-50 3 45 8 c25 5 58 9 75 9 16 0 42 2 57 5 25 6 28 11 28 50 0
25 -5 45 -12 48 -8 3 -6 6 5 6 13 1 17 10 17 34 0 31 -4 35 -42 47 -24 7 -65
21 -93 32 l-50 19 45 -6 c43 -5 47 -4 57 22 l11 28 -5 -31 c-5 -28 -2 -32 27
-38 52 -10 59 -8 75 25 9 17 15 32 13 33 -2 1 -16 12 -31 24 l-28 21 35 -6
c33 -5 36 -4 36 18 0 36 -28 72 -51 66 -11 -3 -17 -1 -14 4 3 4 -13 25 -35 45
-22 20 -39 38 -37 40 2 2 26 -7 52 -20 l49 -23 20 26 c11 14 23 31 28 37 5 7
0 22 -13 38 -23 29 -15 35 13 9 18 -16 20 -15 44 9 30 30 27 49 -13 93 -34 36
-65 93 -60 108 2 7 14 0 29 -16 14 -15 30 -27 37 -27 6 0 11 -8 11 -18 0 -17
52 -82 66 -82 4 0 21 9 40 20 l33 21 -21 49 c-11 27 -26 50 -34 52 -21 5 -2
24 31 32 24 5 27 4 12 -5 -21 -12 -16 -38 15 -81 21 -30 43 -35 69 -15 14 11
15 20 6 65 -11 52 -12 53 -42 47 l-30 -6 25 14 c18 9 24 21 23 40 -2 26 -31
97 -44 107 -8 6 -22 100 -15 100 12 0 52 -76 53 -100 2 -30 23 -101 34 -114 8
-9 129 12 129 23 0 3 25 4 55 3 63 -4 61 -6 68 86 5 62 5 62 -21 63 l-27 1 30
9 c16 4 46 6 66 3 45 -7 52 2 52 68 0 61 -19 100 -47 96 -21 -3 -26 -18 -31
-86 -4 -65 -15 -63 -16 4 -1 32 -1 63 1 69 1 5 -6 15 -15 21 -14 11 -14 12 0
18 9 3 15 16 14 28 -4 43 1 69 11 63 5 -3 10 -21 10 -38 0 -38 14 -65 24 -48
4 6 5 15 2 19 -3 5 -6 42 -7 84 -2 85 -5 93 -34 101 -19 5 -19 5 3 12 13 4 25
18 28 34 12 52 16 62 38 89 12 15 33 44 45 65 l23 38 -21 6 c-31 8 -26 18 10
19 34 1 49 17 49 50 0 27 44 57 70 49 11 -3 30 -1 42 6 13 7 41 16 63 20 22 5
65 13 95 19 94 17 149 -2 240 -87 72 -66 158 -194 188 -279 28 -78 29 -187 2
-264 -17 -50 -17 -57 -4 -78 15 -23 15 -23 -6 -12 -12 7 -25 8 -29 3 -4 -4
-31 -39 -61 -77 l-53 -68 73 -70 74 -69 41 22 c36 21 39 21 25 3 -8 -10 -21
-23 -27 -27 -22 -14 -14 -23 40 -42 28 -10 68 -29 88 -41 47 -29 126 -120 141
-161 10 -27 17 -33 43 -33 l30 0 -22 -18 c-22 -17 -22 -18 -8 -67 34 -110 57
-252 57 -349 0 -96 1 -100 41 -175 23 -42 47 -82 54 -89 7 -7 13 -20 13 -27 0
-16 58 -165 71 -180 4 -6 4 -17 -2 -25 -6 -10 -11 -12 -16 -4 -7 10 -66 34
-83 34 -4 0 -11 -16 -15 -36 -3 -20 -12 -50 -20 -68 -37 -86 -53 -131 -49
-137 2 -4 13 -5 23 -2 15 4 19 12 16 36 -1 18 -1 24 2 15 2 -9 11 -22 19 -28
11 -10 14 -8 14 9 0 13 4 19 10 16 6 -4 8 -10 5 -15 -3 -5 -1 -11 5 -15 12 -8
13 10 1 33 -5 9 -11 40 -14 67 -4 32 -3 41 2 25 13 -39 107 -180 120 -180 16
0 33 28 21 35 -5 3 -10 -1 -10 -10 0 -9 -5 -13 -10 -10 -8 5 -7 11 1 21 6 7 8
22 4 31 -12 33 -32 162 -23 157 4 -3 8 -11 8 -18 0 -14 19 -35 180 -202 87
-90 118 -132 179 -238 41 -71 89 -148 108 -172 18 -24 33 -47 33 -50 0 -31
195 -244 266 -290 11 -8 64 -18 118 -24 53 -5 106 -14 116 -20 10 -5 26 -10
35 -10 20 0 159 -89 152 -97 -6 -5 -63 26 -106 59 -13 10 -26 16 -28 14 -8 -7
21 -46 34 -46 7 0 13 -4 13 -10 0 -5 7 -10 16 -10 25 0 66 -49 61 -72 -3 -11
2 -22 14 -28 30 -17 22 -30 -13 -23 -38 7 -67 20 -86 40 -13 13 -32 18 -32 8
0 -21 30 -59 69 -86 57 -41 71 -55 71 -68 0 -14 -13 -14 -28 1 -7 7 -12 8 -12
4 0 -11 47 -51 88 -76 l32 -19 0 1629 c0 1299 -3 1629 -12 1627 -7 -1 -13 5
-13 13 0 8 6 14 13 13 9 -2 12 41 12 189 0 105 -3 188 -7 185 -3 -4 -11 3 -18
16 -6 13 -19 21 -31 20 -10 -1 -13 0 -6 3 19 9 14 28 -9 43 -18 11 -19 15 -8
23 11 7 11 11 2 15 -7 2 -13 12 -13 21 0 8 -7 24 -17 34 -15 17 -15 18 0 18
11 0 17 8 17 21 0 11 6 27 14 34 12 12 16 12 27 -1 7 -8 21 -20 31 -25 17 -9
18 10 18 551 l0 560 -1155 0 c-1050 0 -1154 -1 -1148 -16 4 -12 0 -15 -18 -12
-13 2 -23 9 -21 16 1 9 -156 12 -724 12 -688 0 -726 -1 -719 -17 4 -10 9 -29
10 -43 2 -14 14 -55 29 -91 14 -35 28 -80 31 -99 l6 -35 -14 30 c-8 17 -24 62
-37 100 -12 39 -29 77 -36 86 -8 8 -14 28 -14 42 l0 27 -336 0 c-321 0 -337
-1 -361 -20 -14 -11 -33 -20 -41 -20 -13 0 -12 3 3 20 18 20 17 20 -32 20 -33
0 -55 -5 -63 -15 -7 -8 -17 -15 -22 -15 -6 0 -8 7 -4 15 5 13 -45 15 -414 15
l-420 0 0 -2750z m4765 2680 c8 -13 -5 -13 -25 0 -13 8 -13 10 2 10 9 0 20 -4
23 -10z m-2008 -32 c-3 -7 -5 -2 -5 12 0 14 2 19 5 13 2 -7 2 -19 0 -25z
m-1810 -35 c-9 -9 -19 -14 -23 -11 -10 10 6 28 24 28 15 0 15 -1 -1 -17z
m3763 13 c0 -2 -7 -7 -16 -10 -8 -3 -12 -2 -9 4 6 10 25 14 25 6z m97 -30 c24
-13 41 -25 38 -28 -3 -3 6 -13 20 -22 29 -19 55 -15 55 9 0 8 4 15 9 15 16 0
24 -21 12 -33 -18 -18 -13 -32 19 -50 16 -10 58 -44 92 -75 103 -96 103 -95
89 -100 -7 -2 -25 8 -40 22 -15 14 -35 26 -45 26 -19 0 -48 -24 -40 -33 3 -3
-14 4 -38 15 -24 11 -64 30 -90 41 -26 12 -47 27 -48 34 0 6 -13 17 -30 25
-16 7 -30 17 -30 23 0 6 -14 16 -31 24 -16 7 -28 16 -25 19 3 3 1 11 -5 18 -7
9 -7 19 1 35 11 19 10 21 -4 16 -9 -4 -16 -2 -16 4 0 5 6 12 14 15 8 3 12 12
9 21 -7 19 18 12 84 -21z m-3742 4 c-3 -5 -13 -10 -21 -10 -8 0 -14 5 -14 10
0 6 9 10 21 10 11 0 17 -4 14 -10z m-285 -25 c-7 -8 -19 -15 -27 -15 -13 0
-13 3 -3 15 7 8 19 15 27 15 13 0 13 -3 3 -15z m2908 -8 c4 -19 -6 -21 -27 -8
-16 10 -5 34 12 28 7 -2 13 -11 15 -20z m-2588 -32 c-7 -9 -15 -13 -17 -11 -7
7 7 26 19 26 6 0 6 -6 -2 -15z m-547 -24 c3 -14 11 -18 26 -14 19 5 20 3 13
-18 -7 -17 -4 -28 10 -43 10 -11 18 -25 18 -30 -1 -6 -12 2 -25 19 -22 27 -27
29 -45 17 -29 -18 -46 -5 -24 19 13 14 15 22 7 30 -8 8 -25 0 -62 -31 -28 -24
-54 -41 -57 -37 -3 3 7 16 22 29 15 13 41 35 58 50 37 33 52 35 59 9z m2975
-28 c2 -8 -5 -13 -17 -13 -12 0 -21 6 -21 16 0 18 31 15 38 -3z m-2428 -33 c0
-5 -10 -10 -22 -10 -19 0 -20 2 -8 10 19 13 30 13 30 0z m1662 -103 c-9 -19
-11 -13 -10 33 0 53 1 54 10 22 8 -23 8 -39 0 -55z m1328 57 c0 -8 -4 -14 -9
-14 -12 0 -32 26 -25 33 10 9 34 -4 34 -19z m-3338 -110 c36 6 58 -2 58 -19 0
-7 5 -15 10 -17 7 -2 5 -15 -5 -35 -15 -30 -15 -35 -1 -55 28 -40 10 -55 -21
-18 -23 27 -36 25 -29 -4 5 -20 1 -26 -26 -35 -38 -13 -141 -15 -133 -2 3 5 1
12 -3 15 -18 11 0 54 38 95 21 23 43 41 49 41 17 0 13 14 -13 53 -48 70 -48
82 -1 29 41 -46 51 -52 77 -48z m-384 49 c-19 -29 -108 -107 -114 -100 -7 6
103 117 116 117 6 0 5 -7 -2 -17z m682 13 c0 -2 -7 -6 -15 -10 -8 -3 -15 -1
-15 4 0 6 7 10 15 10 8 0 15 -2 15 -4z m3374 -92 c3 -8 -1 -14 -8 -14 -16 0
-38 24 -30 33 9 9 32 -3 38 -19z m-3454 6 c0 -5 -4 -10 -10 -10 -5 0 -10 5
-10 10 0 6 5 10 10 10 6 0 10 -4 10 -10z m4240 -31 c10 -18 9 -20 -7 -17 -10
2 -19 11 -21 21 -5 24 15 21 28 -4z m-4320 -39 c0 -5 -5 -10 -11 -10 -5 0 -7
5 -4 10 3 6 8 10 11 10 2 0 4 -4 4 -10z m4376 -67 c-2 -3 -13 3 -24 13 -15 13
-17 20 -9 29 9 9 14 6 24 -13 8 -14 11 -27 9 -29z m-1228 20 c6 -19 -35 -16
-42 3 -4 11 0 15 16 12 12 -2 23 -9 26 -15z m660 -1 c3 -9 -2 -13 -14 -10 -9
1 -19 9 -22 16 -3 9 2 13 14 10 9 -1 19 -9 22 -16z m222 -67 c7 -9 10 -18 7
-21 -10 -11 -37 5 -37 21 0 19 14 19 30 0z m338 3 c14 -14 16 -28 2 -28 -5 0
-14 9 -20 20 -12 22 -1 27 18 8z m-38 -59 c0 -18 -35 -5 -38 14 -3 16 -1 17
17 7 12 -6 21 -15 21 -21z m-122 4 c6 -19 -25 -16 -32 3 -4 11 -1 14 11 12 9
-2 18 -9 21 -15z m-4108 -105 c0 -4 -4 -8 -10 -8 -5 0 -10 7 -10 15 0 8 -6 15
-14 15 -14 0 -26 21 -26 43 1 13 60 -52 60 -65z m3410 -69 c0 -24 -23 -21 -28
4 -2 10 3 17 12 17 10 0 16 -9 16 -21z m-4145 -129 c-3 -5 -11 -10 -16 -10 -6
0 -7 5 -4 10 3 6 11 10 16 10 6 0 7 -4 4 -10z m117 -12 c-7 -7 -12 -8 -12 -2
0 14 12 26 19 19 2 -3 -1 -11 -7 -17z m-282 -57 c0 -6 -4 -13 -10 -16 -5 -3
-10 1 -10 9 0 9 5 16 10 16 6 0 10 -4 10 -9z m4598 -55 c3 -12 -1 -17 -10 -14
-7 3 -15 13 -16 22 -3 12 1 17 10 14 7 -3 15 -13 16 -22z m-4198 -36 c0 -5 -5
-10 -11 -10 -5 0 -7 5 -4 10 3 6 8 10 11 10 2 0 4 -4 4 -10z m-8 -112 c-7 -7
-12 -8 -12 -2 0 14 12 26 19 19 2 -3 -1 -11 -7 -17z m4456 -74 c-10 -10 -28 6
-28 24 0 15 1 15 17 -1 9 -9 14 -19 11 -23z m-4483 -14 c3 -5 -1 -10 -9 -10
-9 0 -16 5 -16 10 0 6 4 10 9 10 6 0 13 -4 16 -10z m-157 -43 c6 -5 12 -22 12
-37 0 -19 8 -33 25 -44 25 -16 33 -36 16 -36 -5 0 -16 7 -25 15 -8 8 -18 15
-21 15 -8 0 -44 -42 -45 -52 0 -15 29 -8 38 8 6 11 12 13 16 6 9 -15 -35 -57
-59 -56 -11 1 -28 2 -37 3 -9 1 -29 11 -43 24 -27 22 -27 23 -11 61 9 21 14
42 11 46 -3 4 1 10 9 13 9 4 12 14 9 27 -4 15 -2 19 10 14 9 -3 24 -1 33 4 18
10 39 6 62 -11z m112 -47 c0 -5 -4 -10 -10 -10 -5 0 -10 5 -10 10 0 6 5 10 10
10 6 0 10 -4 10 -10z m4739 -44 c8 -10 9 -16 1 -21 -13 -8 -30 3 -30 21 0 18
14 18 29 0z m191 -132 c0 -17 -22 -14 -28 4 -2 7 3 12 12 12 9 0 16 -7 16 -16z
m-4776 -10 c20 -8 21 -24 2 -24 -8 0 -16 7 -20 15 -6 17 -4 18 18 9z m3516
-291 c0 -5 -17 -21 -38 -37 l-37 -29 34 36 c36 39 41 42 41 30z m-1700 -53 c0
-5 -5 -10 -11 -10 -5 0 -7 5 -4 10 3 6 8 10 11 10 2 0 4 -4 4 -10z m1595 -45
c-15 -15 -29 -24 -32 -21 -3 3 8 16 23 30 38 32 45 24 9 -9z m-1363 -123 c-7
-36 -11 -21 -16 54 l-5 69 12 -50 c7 -27 11 -60 9 -73z m1290 56 c-6 -6 -15
-8 -19 -4 -4 4 -1 11 7 16 19 12 27 3 12 -12z m-102 -88 c0 -5 -2 -10 -4 -10
-3 0 -8 5 -11 10 -3 6 -1 10 4 10 6 0 11 -4 11 -10z m-1183 -32 c-3 -8 -6 -5
-6 6 -1 11 2 17 5 13 3 -3 4 -12 1 -19z m-2287 8 c0 -3 -4 -8 -10 -11 -5 -3
-10 -1 -10 4 0 6 5 11 10 11 6 0 10 -2 10 -4z m1975 -16 c3 -5 1 -10 -4 -10
-6 0 -11 5 -11 10 0 6 2 10 4 10 3 0 8 -4 11 -10z m-1980 -80 c3 -5 1 -10 -4
-10 -6 0 -11 5 -11 10 0 6 2 10 4 10 3 0 8 -4 11 -10z m2034 -35 c0 -5 -6 -1
-14 9 -8 11 -15 24 -15 30 0 5 7 1 15 -10 8 -10 14 -23 14 -29z m-204 25 c-3
-5 -11 -10 -16 -10 -6 0 -7 5 -4 10 3 6 11 10 16 10 6 0 7 -4 4 -10z m2505 0
c-20 -13 -33 -13 -25 0 3 6 14 10 23 10 15 0 15 -2 2 -10z m-50 -20 c-20 -13
-33 -13 -25 0 3 6 14 10 23 10 15 0 15 -2 2 -10z m-60 -25 c0 -4 -67 -35 -76
-35 -15 0 1 18 24 27 30 12 52 16 52 8z m-4365 -25 c4 -6 10 -8 14 -5 5 2 13
-7 19 -20 7 -14 20 -25 29 -25 22 0 50 -17 42 -25 -4 -3 -18 -1 -33 4 -24 10
-27 8 -39 -22 -12 -29 -12 -33 5 -39 10 -4 18 -12 18 -17 0 -14 -75 -24 -97
-13 -10 5 -23 7 -30 5 -16 -6 -27 71 -14 96 6 11 9 26 6 34 -10 24 66 50 80
27z m135 -4 c0 -3 -4 -8 -10 -11 -5 -3 -10 -1 -10 4 0 6 5 11 10 11 6 0 10 -2
10 -4z m4095 -26 c-3 -5 -11 -10 -16 -10 -6 0 -7 5 -4 10 3 6 11 10 16 10 6 0
7 -4 4 -10z m-4155 -86 c0 -8 -4 -14 -10 -14 -5 0 -10 9 -10 21 0 11 5 17 10
14 6 -3 10 -13 10 -21z m274 -10 c9 -3 14 -10 11 -15 -7 -10 -35 0 -35 12 0
11 3 11 24 3z m1626 -24 c0 -5 -7 -10 -16 -10 -8 0 -12 5 -9 10 3 6 10 10 16
10 5 0 9 -4 9 -10z m1945 -10 c-3 -5 -13 -10 -21 -10 -8 0 -12 5 -9 10 3 6 13
10 21 10 8 0 12 -4 9 -10z m-2175 -10 c0 -5 -4 -10 -10 -10 -5 0 -10 5 -10 10
0 6 5 10 10 10 6 0 10 -4 10 -10z m2115 -10 c3 -5 -1 -10 -10 -10 -9 0 -13 5
-10 10 3 6 8 10 10 10 2 0 7 -4 10 -10z m-1942 -15 c-3 -9 -8 -14 -10 -11 -3
3 -2 9 2 15 9 16 15 13 8 -4z m-33 -54 c0 -14 -18 -23 -30 -16 -6 4 -8 11 -5
16 8 12 35 12 35 0z m53 -178 c2 -5 -5 -17 -16 -27 -18 -17 -20 -17 -14 -2 4
10 7 22 7 27 0 11 17 12 23 2z m-333 -43 c0 -5 -2 -10 -4 -10 -3 0 -8 5 -11
10 -3 6 -1 10 4 10 6 0 11 -4 11 -10z m157 -46 c-9 -9 -28 6 -21 18 4 6 10 6
17 -1 6 -6 8 -13 4 -17z m3137 -43 c3 -5 -17 -11 -45 -13 -62 -4 -77 9 -17 15
24 2 46 4 50 5 4 1 9 -2 12 -7z m61 -1 c-3 -5 -13 -10 -21 -10 -8 0 -14 5 -14
10 0 6 9 10 21 10 11 0 17 -4 14 -10z m-180 -10 c4 -6 -5 -10 -20 -10 -15 0
-24 4 -20 10 3 6 12 10 20 10 8 0 17 -4 20 -10z m-105 -10 c0 -5 -9 -10 -20
-10 -11 0 -20 5 -20 10 0 6 9 10 20 10 11 0 20 -4 20 -10z m-387 -27 c-7 -2
-19 -2 -25 0 -7 3 -2 5 12 5 14 0 19 -2 13 -5z m-143 -7 c0 -11 -19 -15 -25
-6 -3 5 1 10 9 10 9 0 16 -2 16 -4z m-2283 -38 c-3 -8 -6 -5 -6 6 -1 11 2 17
5 13 3 -3 4 -12 1 -19z m-1547 -12 c0 -11 -19 -15 -25 -6 -3 5 1 10 9 10 9 0
16 -2 16 -4z m1413 -78 c3 -32 1 -48 -7 -48 -7 0 -10 19 -7 57 4 64 7 62 14
-9z m-1393 2 c0 -5 -4 -10 -10 -10 -5 0 -10 5 -10 10 0 6 5 10 10 10 6 0 10
-4 10 -10z m1227 -62 c-3 -8 -6 -5 -6 6 -1 11 2 17 5 13 3 -3 4 -12 1 -19z
m-1287 -53 c7 -8 24 -14 39 -12 14 1 27 -2 28 -8 2 -5 -5 -10 -15 -10 -28 -1
-40 -14 -35 -35 7 -27 23 -25 23 2 0 15 3 19 11 11 18 -18 0 -58 -34 -73 -54
-25 -85 -23 -103 5 -29 45 -33 87 -11 113 24 26 78 30 97 7z m322 -7 c-9 -9
-15 -9 -24 0 -9 9 -7 12 12 12 19 0 21 -3 12 -12z m1275 -20 c-3 -8 -6 -5 -6
6 -1 11 2 17 5 13 3 -3 4 -12 1 -19z m16 -38 c3 -11 1 -18 -4 -14 -5 3 -9 12
-9 20 0 20 7 17 13 -6z m-93 -130 c0 -5 -7 -10 -16 -10 -8 0 -12 5 -9 10 3 6
10 10 16 10 5 0 9 -4 9 -10z m-155 -60 c3 -5 1 -10 -4 -10 -6 0 -11 5 -11 10
0 6 2 10 4 10 3 0 8 -4 11 -10z m179 -6 c3 -8 2 -12 -4 -9 -6 3 -10 10 -10 16
0 14 7 11 14 -7z m2551 -84 c3 -5 -1 -10 -9 -10 -8 0 -18 5 -21 10 -3 6 1 10
9 10 8 0 18 -4 21 -10z m150 -40 c3 -5 -1 -10 -9 -10 -8 0 -18 5 -21 10 -3 6
1 10 9 10 8 0 18 -4 21 -10z m-3808 -66 c-3 -3 -12 -4 -19 -1 -8 3 -5 6 6 6
11 1 17 -2 13 -5z m4203 -34 c12 -8 11 -10 -7 -10 -13 0 -23 5 -23 10 0 13 11
13 30 0z m-4165 -20 c-3 -5 -10 -10 -16 -10 -5 0 -9 5 -9 10 0 6 7 10 16 10 8
0 12 -4 9 -10z m4280 -10 c3 -5 -3 -10 -14 -10 -11 0 -23 5 -26 10 -3 6 3 10
14 10 11 0 23 -4 26 -10z m-4025 -10 c0 -5 -7 -10 -16 -10 -8 0 -12 5 -9 10 3
6 10 10 16 10 5 0 9 -4 9 -10z m810 -11 c0 -6 -4 -7 -10 -4 -5 3 -10 11 -10
16 0 6 5 7 10 4 6 -3 10 -11 10 -16z m3260 7 c0 -11 -19 -15 -25 -6 -3 5 1 10
9 10 9 0 16 -2 16 -4z m70 -16 c12 -8 11 -10 -7 -10 -13 0 -23 5 -23 10 0 13
11 13 30 0z m-4360 -10 c0 -5 -5 -10 -11 -10 -5 0 -7 5 -4 10 3 6 8 10 11 10
2 0 4 -4 4 -10z m4420 -10 c0 -5 -6 -10 -14 -10 -8 0 -18 5 -21 10 -3 6 3 10
14 10 12 0 21 -4 21 -10z m-4458 -50 c10 0 18 5 18 10 0 6 9 10 20 10 21 0 27
-15 10 -25 -7 -4 -7 -11 -2 -18 5 -7 12 -25 16 -42 4 -18 3 -25 -2 -17 -7 10
-13 7 -26 -12 -9 -14 -23 -26 -32 -26 -8 0 -12 -4 -9 -10 11 -17 -42 -11 -63
8 -35 30 -51 65 -41 90 10 26 69 55 84 41 5 -5 17 -9 27 -9z m929 -47 c13 -16
12 -17 -3 -4 -10 7 -18 15 -18 17 0 8 8 3 21 -13z m-176 -153 c-10 -11 -23
-20 -28 -20 -6 0 -2 9 8 20 10 11 23 20 28 20 6 0 2 -9 -8 -20z m-275 -34 c0
-3 -4 -8 -10 -11 -5 -3 -10 -1 -10 4 0 6 5 11 10 11 6 0 10 -2 10 -4z m50 -36
c0 -5 -4 -10 -9 -10 -6 0 -13 5 -16 10 -3 6 1 10 9 10 9 0 16 -4 16 -10z m40
-30 c0 -5 -5 -10 -11 -10 -5 0 -7 -5 -4 -10 4 -6 15 -8 25 -5 13 4 19 -1 23
-22 3 -16 18 -41 32 -57 29 -34 33 -47 7 -23 -22 20 -32 22 -32 6 0 -23 -42
-69 -63 -69 -11 0 -36 10 -54 23 -27 18 -32 27 -28 47 12 47 33 70 66 70 27 0
30 2 19 15 -7 8 -10 22 -6 30 6 17 26 21 26 5z m-335 -10 c3 -5 1 -10 -4 -10
-6 0 -11 5 -11 10 0 6 2 10 4 10 3 0 8 -4 11 -10z m-1075 -60 c0 -5 -4 -10
-10 -10 -5 0 -10 5 -10 10 0 6 5 10 10 10 6 0 10 -4 10 -10z m255 -500 c3 -5
1 -10 -4 -10 -6 0 -11 5 -11 10 0 6 2 10 4 10 3 0 8 -4 11 -10z m1475 -34 c0
-3 -4 -8 -10 -11 -5 -3 -10 -1 -10 4 0 6 5 11 10 11 6 0 10 -2 10 -4z"/>
<path d="M940 1601 c0 -6 5 -13 10 -16 6 -3 10 1 10 9 0 9 -4 16 -10 16 -5 0
-10 -4 -10 -9z"/>
<path d="M3155 3666 c-16 -11 -19 -27 -20 -80 0 -42 4 -66 11 -66 6 0 23 -9
38 -21 15 -12 25 -16 24 -8 -5 20 -31 49 -45 49 -7 0 -13 5 -13 10 0 14 11 13
54 -5 20 -8 36 -20 36 -25 0 -6 6 -9 13 -7 6 1 11 -6 11 -15 -1 -10 2 -18 7
-18 5 0 14 -11 19 -25 9 -24 40 -36 40 -15 0 5 -7 7 -15 4 -8 -4 -15 -1 -15 5
0 6 8 11 18 11 15 1 15 2 -2 11 -13 8 -15 14 -7 19 9 5 8 24 -5 76 -9 38 -21
74 -25 80 -5 6 -33 9 -64 8 -32 -1 -53 2 -49 7 3 5 9 7 13 5 4 -3 13 -1 21 5
12 7 11 9 -6 9 -11 0 -29 -6 -39 -14z"/>
<path d="M3321 3564 c0 -11 3 -14 6 -6 3 7 2 16 -1 19 -3 4 -6 -2 -5 -13z"/>
<path d="M3330 3520 c0 -5 5 -10 10 -10 6 0 10 5 10 10 0 6 -4 10 -10 10 -5 0
-10 -4 -10 -10z"/>
<path d="M2974 3454 c4 -9 1 -22 -5 -30 -19 -23 -18 -62 2 -67 21 -6 26 8 7
16 -7 3 -1 6 15 6 20 1 27 6 27 21 0 11 -4 20 -9 20 -5 0 -12 11 -15 25 -4 14
-11 25 -17 25 -6 0 -8 -7 -5 -16z"/>
<path d="M3235 3410 c3 -5 8 -10 11 -10 2 0 4 5 4 10 0 6 -5 10 -11 10 -5 0
-7 -4 -4 -10z"/>
<path d="M2895 3400 c-3 -5 -1 -10 4 -10 6 0 11 5 11 10 0 6 -2 10 -4 10 -3 0
-8 -4 -11 -10z"/>
<path d="M2775 3328 c9 -35 9 -61 1 -84 -5 -16 -2 -23 13 -27 16 -4 20 2 26
42 3 25 9 56 12 69 4 19 1 22 -26 22 -28 0 -31 -3 -26 -22z"/>
<path d="M3440 3270 c6 -11 16 -17 25 -14 8 4 15 1 15 -5 0 -6 -7 -11 -15 -11
-8 0 -15 -5 -15 -11 0 -7 10 -9 25 -5 18 5 23 3 20 -7 -6 -13 52 -40 66 -31 5
3 9 0 9 -5 0 -6 5 -11 10 -11 23 0 6 22 -52 69 -44 36 -64 47 -70 38 -6 -9 -8
-9 -8 1 0 6 -5 12 -10 12 -7 0 -7 -6 0 -20z"/>
<path d="M2673 3193 c-25 -3 -33 -9 -33 -25 0 -20 0 -20 -17 1 -16 19 -22 20
-58 10 -56 -15 -60 -22 -39 -67 16 -37 20 -41 55 -40 34 0 38 3 44 34 6 34 25
48 25 19 0 -8 4 -15 10 -15 5 0 7 -8 4 -17 -5 -17 -5 -17 6 0 6 9 17 17 24 17
8 0 21 16 31 36 14 30 15 38 4 45 -8 5 -16 8 -19 7 -3 -1 -20 -3 -37 -5z"/>
<path d="M3655 3070 c3 -5 8 -10 11 -10 2 0 4 5 4 10 0 6 -5 10 -11 10 -5 0
-7 -4 -4 -10z"/>
<path d="M3794 3041 c18 -7 18 -8 2 -14 -15 -6 -16 -10 -6 -22 8 -10 9 -15 2
-15 -6 0 -18 10 -26 22 -9 12 -16 17 -16 11 0 -6 6 -16 14 -22 8 -7 18 -26 21
-42 4 -16 10 -29 15 -29 4 0 15 -18 24 -40 18 -46 26 -48 68 -19 21 15 26 25
19 32 -6 6 -11 19 -11 28 0 10 -10 25 -22 33 -12 9 -19 16 -14 16 5 0 1 9 -9
20 -10 12 -25 18 -33 15 -12 -4 -12 -3 -3 9 9 11 8 15 -5 20 -8 3 -21 6 -27 5
-7 0 -3 -4 7 -8z"/>
<path d="M3660 2971 c0 -12 6 -21 16 -21 9 0 14 7 12 17 -5 25 -28 28 -28 4z"/>
<path d="M3716 2913 c-3 -4 -6 -11 -6 -17 0 -6 5 -4 10 4 7 12 11 10 19 -10 9
-23 10 -23 10 -4 1 21 -21 39 -33 27z"/>
<path d="M3763 2878 c3 -23 2 -38 -4 -38 -6 0 -7 5 -4 10 7 11 -18 14 -28 3
-11 -11 14 -33 38 -33 49 0 53 44 9 81 -16 13 -17 11 -11 -23z"/>
<path d="M3320 2860 c-9 -6 -10 -10 -3 -10 6 0 15 5 18 10 8 12 4 12 -15 0z"/>
<path d="M3883 2838 c-35 -12 -39 -19 -23 -48 12 -22 69 -248 72 -284 2 -22 7
-26 34 -26 17 0 33 2 35 5 11 11 -30 245 -42 245 -5 0 -9 11 -9 24 0 14 -5 28
-11 32 -8 4 -7 9 2 15 10 6 11 9 2 9 -7 0 -13 9 -13 20 0 22 -1 22 -47 8z"/>
<path d="M3704 2815 c21 -16 32 -13 21 4 -3 6 -14 11 -23 11 -15 -1 -15 -2 2
-15z"/>
<path d="M2205 2806 c-11 -8 -16 -20 -12 -30 10 -25 24 -19 30 12 6 34 5 35
-18 18z"/>
<path d="M3779 2793 c-13 -9 -27 -21 -30 -26 -3 -5 -9 -8 -13 -8 -5 1 -8 -4
-5 -11 0 -2 3 -14 5 -27 2 -14 16 -39 29 -57 27 -35 30 -44 16 -44 -4 0 -21
19 -37 43 -16 23 -35 49 -43 57 -12 12 -12 11 -5 -10 4 -14 13 -45 20 -70 10
-39 15 -45 35 -41 48 7 62 6 66 -6 5 -13 -2 -17 -49 -27 -26 -6 -28 -10 -27
-54 1 -26 4 -38 6 -28 3 12 7 15 12 7 7 -11 113 -23 135 -15 23 9 -5 145 -42
208 -20 34 -36 84 -33 103 3 20 -15 23 -40 6z m62 -275 c5 -21 4 -28 -7 -28
-8 0 -14 8 -14 18 0 10 -6 24 -12 31 -11 10 -9 12 6 9 11 -2 23 -15 27 -30z"/>
<path d="M2181 2464 c0 -11 3 -14 6 -6 3 7 2 16 -1 19 -3 4 -6 -2 -5 -13z"/>
<path d="M3875 2430 c-3 -5 -1 -10 5 -10 6 0 10 -8 9 -17 -1 -10 3 -29 9 -43
10 -22 11 -19 11 28 1 39 -3 52 -13 52 -8 0 -18 -4 -21 -10z"/>
<path d="M3767 2423 c-11 -11 -8 -23 6 -23 8 0 14 -6 15 -12 6 -49 16 -78 28
-78 23 0 27 -21 5 -27 -30 -8 -26 -23 9 -36 31 -12 36 -33 7 -31 -13 1 -14 -2
-7 -16 12 -23 13 -43 1 -36 -16 10 -6 -28 12 -46 32 -33 41 -20 51 77 1 17 6
39 11 49 5 12 3 31 -5 50 -7 17 -15 43 -17 58 -3 15 -11 32 -18 38 -8 6 -11
18 -8 26 4 11 -5 14 -39 14 -25 0 -48 -3 -51 -7z"/>
<path d="M2172 2390 c1 -16 4 -30 8 -30 4 0 10 14 12 30 3 20 0 30 -8 30 -8 0
-12 -12 -12 -30z"/>
<path d="M3947 2383 c-10 -15 -11 -128 -2 -143 9 -15 68 -13 62 3 -2 6 -13 11
-23 9 -13 -2 -15 0 -7 6 9 6 10 16 3 38 -5 16 -13 45 -17 64 -6 22 -11 31 -16
23z"/>
<path d="M2180 2296 c0 -31 6 -34 13 -6 3 11 1 23 -4 26 -5 3 -9 -6 -9 -20z"/>
<path d="M4031 2241 c-1 -25 2 -32 14 -27 8 3 15 1 15 -5 0 -6 -15 -10 -32 -9
-66 4 -66 4 -57 -42 9 -52 25 -94 37 -102 5 -3 27 -8 50 -12 l40 -6 7 55 c8
66 4 83 -33 122 -16 17 -31 37 -35 45 -3 8 -6 0 -6 -19z m4 -61 c3 -5 1 -10
-4 -10 -6 0 -11 5 -11 10 0 6 2 10 4 10 3 0 8 -4 11 -10z"/>
<path d="M3921 2180 c-16 -48 -14 -97 5 -104 38 -15 47 -8 40 33 -3 21 -12 53
-19 71 l-14 32 -12 -32z"/>
<path d="M3610 2105 c0 -8 -6 -15 -13 -15 -15 0 -45 -53 -57 -101 -5 -19 -13
-48 -18 -66 -9 -28 -7 -34 18 -58 l28 -27 26 38 c27 41 35 37 12 -6 -13 -22
-12 -27 10 -47 35 -33 29 -45 -12 -26 -35 17 -36 17 -54 -7 -11 -14 -17 -33
-14 -42 3 -11 0 -18 -8 -18 -8 0 -34 -20 -57 -46 l-44 -45 6 -66 c6 -62 27
-113 47 -113 4 0 15 7 24 15 25 25 31 17 7 -9 l-23 -24 21 -12 c18 -9 19 -14
10 -31 -10 -20 -11 -20 -30 -3 -10 9 -21 15 -24 12 -7 -6 14 -144 26 -176 8
-22 10 -22 41 -7 l33 16 -29 -25 c-22 -19 -27 -29 -22 -48 30 -107 36 -145 37
-226 0 -99 32 -237 63 -271 9 -10 16 -27 16 -39 0 -12 4 -22 9 -22 21 0 30
-69 41 -290 6 -129 13 -254 16 -277 l5 -42 900 -1 899 0 0 212 c-1 209 -1 213
-19 191 -26 -31 -65 -44 -109 -37 -20 3 -75 9 -122 13 -47 4 -99 15 -117 24
-17 9 -39 14 -47 11 -9 -3 -16 -1 -16 5 0 6 -5 11 -11 11 -21 0 -109 45 -109
55 0 6 -18 33 -41 60 -22 27 -59 81 -82 119 -45 77 -54 87 -73 79 -8 -3 -11 2
-7 15 3 13 -7 33 -28 58 -53 62 -172 184 -179 184 -4 0 -29 21 -56 48 -27 26
-78 72 -113 102 -35 30 -109 98 -165 152 -55 53 -107 97 -113 98 -7 0 -13 6
-13 13 0 6 -15 24 -33 38 -17 14 -47 57 -66 95 -43 86 -40 83 -57 60 -7 -11
-17 -17 -21 -13 -3 4 2 16 12 27 17 18 16 21 -11 67 -15 26 -44 70 -63 96
l-36 48 -23 -28 c-16 -20 -21 -23 -16 -8 4 11 11 25 16 32 6 7 6 18 2 25 -5 7
-9 19 -10 28 -2 8 -18 56 -36 106 l-33 91 -28 -61 c-15 -34 -27 -66 -27 -73 0
-22 -19 -24 -41 -2 -20 20 -20 21 -1 15 17 -6 24 1 41 39 11 25 23 61 26 79 6
29 4 34 -17 39 -36 10 -48 8 -48 -8z m85 -155 c3 -6 -1 -13 -10 -16 -19 -8
-30 0 -20 15 8 14 22 14 30 1z m51 -236 c-6 -17 -36 -19 -36 -2 0 6 8 19 18
28 14 14 18 14 20 3 2 -8 1 -21 -2 -29z m-142 -159 c-8 -19 -44 -40 -44 -26 0
8 38 41 47 41 1 0 0 -7 -3 -15z m40 -26 c-3 -5 -10 -7 -15 -3 -5 3 -7 10 -3
15 3 5 10 7 15 3 5 -3 7 -10 3 -15z m106 -15 c0 -8 -4 -12 -10 -9 -5 3 -10 10
-10 16 0 5 5 9 10 9 6 0 10 -7 10 -16z m0 -118 c0 -8 -7 -16 -15 -20 -10 -4
-15 1 -15 14 0 11 7 20 15 20 8 0 15 -6 15 -14z m-130 -130 c0 -7 -11 -16 -25
-18 -21 -4 -23 -3 -14 13 11 22 39 25 39 5z m365 -476 c3 -5 1 -10 -4 -10 -6
0 -11 5 -11 10 0 6 2 10 4 10 3 0 8 -4 11 -10z"/>
<path d="M2122 2102 c-7 -5 -10 -16 -6 -25 7 -18 24 -23 24 -8 0 5 3 16 6 25
7 17 -3 20 -24 8z"/>
<path d="M4121 2073 c-6 -20 -8 -40 -5 -45 7 -12 54 -10 54 2 0 15 -28 80 -34
80 -3 0 -10 -16 -15 -37z"/>
<path d="M3892 2043 c-26 -64 -42 -146 -31 -159 6 -7 8 -18 4 -24 -4 -6 6 -23
23 -38 16 -15 27 -33 25 -39 -3 -7 0 -13 5 -13 6 0 8 -10 4 -22 -3 -14 -2 -19
6 -14 7 4 12 1 12 -9 0 -20 21 -15 32 8 4 9 13 25 18 35 6 9 13 24 16 32 3 8
19 47 35 85 16 39 31 84 32 100 2 25 -2 30 -23 33 -35 3 -134 35 -141 45 -3 5
-11 -4 -17 -20z"/>
<path d="M3846 2046 c3 -8 1 -17 -5 -21 -6 -3 -11 -16 -10 -28 1 -19 2 -18 14
8 17 36 19 55 5 55 -5 0 -7 -6 -4 -14z"/>
<path d="M2665 1860 c3 -5 1 -11 -4 -15 -5 -3 -9 -14 -8 -25 1 -15 9 -20 32
-20 40 0 45 5 36 37 -5 19 -15 27 -34 29 -15 1 -25 -1 -22 -6z"/>
<path d="M3055 1850 c-3 -5 -1 -10 4 -10 6 0 11 5 11 10 0 6 -2 10 -4 10 -3 0
-8 -4 -11 -10z"/>
<path d="M3496 1852 c-7 -12 -37 -134 -34 -138 2 -1 8 0 14 4 13 10 84 98 84
105 0 11 -59 37 -64 29z"/>
<path d="M2830 1831 c0 -6 4 -13 10 -16 6 -3 7 1 4 9 -7 18 -14 21 -14 7z"/>
<path d="M3076 1795 c-11 -8 -16 -18 -12 -22 3 -4 16 3 29 15 24 25 12 29 -17
7z"/>
<path d="M2517 1772 c-24 -26 -21 -36 13 -49 32 -12 41 -1 13 17 -15 9 -14 10
6 4 16 -4 21 -3 17 5 -4 6 -15 11 -24 11 -13 0 -13 2 4 15 16 12 16 14 3 15
-9 0 -23 -8 -32 -18z"/>
<path d="M3000 1771 c0 -23 16 -36 25 -21 3 6 -1 17 -9 26 -15 14 -16 14 -16
-5z"/>
<path d="M4250 1780 c0 -5 5 -10 11 -10 5 0 7 5 4 10 -3 6 -8 10 -11 10 -2 0
-4 -4 -4 -10z"/>
<path d="M2576 1749 c-9 -44 -8 -49 8 -49 11 0 26 40 26 71 0 24 -28 5 -34
-22z"/>
<path d="M2637 1773 c-2 -4 -7 -25 -11 -45 -6 -34 -4 -38 17 -43 13 -4 39 -5
58 -3 33 3 34 4 31 43 -2 22 -5 41 -5 41 -8 7 -86 13 -90 7z"/>
<path d="M4300 1772 c0 -7 5 -12 11 -12 7 0 9 -10 5 -25 -4 -14 -3 -25 2 -25
11 0 9 -41 -2 -59 -6 -9 -5 -12 1 -8 6 4 14 0 17 -9 4 -10 14 -14 26 -11 13 3
20 0 20 -9 0 -8 4 -14 8 -14 5 0 18 -18 31 -40 27 -48 52 -52 68 -11 9 24 8
34 -5 53 -22 31 -39 48 -49 48 -4 0 -16 13 -25 30 -9 16 -28 32 -42 36 -14 3
-26 12 -26 19 0 6 -9 20 -20 30 -11 10 -20 13 -20 7z"/>
<path d="M2796 1750 c-15 -47 -13 -60 6 -60 19 0 21 16 9 60 l-7 25 -8 -25z"/>
<path d="M2840 1740 c0 -36 15 -56 32 -43 7 6 26 13 41 15 39 4 36 23 -4 21
-19 -1 -26 1 -16 3 31 9 19 29 -18 29 -31 0 -35 -3 -35 -25z"/>
<path d="M3135 1760 c19 -7 19 -8 1 -15 -11 -5 -21 -3 -26 5 -9 15 -30 5 -30
-14 0 -8 6 -19 14 -25 11 -9 15 -8 20 5 3 9 13 14 21 10 8 -3 19 2 24 12 5 9
13 14 17 10 4 -4 -4 -16 -17 -27 -28 -24 -13 -28 19 -5 26 18 30 8 5 -13 -17
-13 -17 -14 2 -11 48 8 8 79 -44 77 -23 0 -24 -1 -6 -9z"/>
<path d="M4100 1745 c0 -8 4 -15 10 -15 5 0 7 7 4 15 -4 8 -8 15 -10 15 -2 0
-4 -7 -4 -15z"/>
<path d="M4290 1740 c0 -5 5 -10 10 -10 6 0 10 5 10 10 0 6 -4 10 -10 10 -5 0
-10 -4 -10 -10z"/>
<path d="M3991 1703 c-10 -37 -7 -60 5 -30 3 9 12 13 19 11 7 -3 18 4 24 15 9
16 8 22 -8 31 -28 14 -29 14 -40 -27z"/>
<path d="M3027 1713 c-10 -9 -8 -43 2 -43 5 0 14 7 21 15 17 21 -4 48 -23 28z"/>
<path d="M4272 1700 c-7 -11 -8 -20 -3 -20 9 0 24 30 18 36 -1 2 -8 -6 -15
-16z"/>
<path d="M4070 1684 c0 -14 4 -23 9 -20 5 3 7 15 4 26 -7 28 -13 25 -13 -6z"/>
<path d="M2500 1680 c12 -8 12 -10 1 -10 -11 0 -11 -3 -1 -15 11 -14 7 -19
-12 -16 -12 2 -9 -6 8 -23 12 -12 12 -16 2 -16 -22 -1 35 -29 60 -30 14 0 22
6 23 18 1 9 2 32 4 50 3 34 6 32 -72 47 -21 4 -24 3 -13 -5z"/>
<path d="M2935 1680 c-3 -5 -4 -14 -1 -18 3 -5 -1 -9 -9 -9 -8 0 -13 3 -12 6
2 7 -7 11 -24 11 -5 0 -7 -4 -4 -10 3 -5 -1 -10 -11 -10 -12 0 -14 -3 -6 -12
5 -8 6 -22 1 -33 -13 -34 -10 -36 33 -33 41 3 43 4 45 38 1 19 5 43 7 52 5 20
-9 34 -19 18z m-5 -59 c0 -14 -23 -29 -36 -24 -10 4 -11 10 -4 24 9 17 40 17
40 0z"/>
<path d="M4295 1680 c-3 -5 -1 -10 4 -10 6 0 11 5 11 10 0 6 -2 10 -4 10 -3 0
-8 -4 -11 -10z"/>
<path d="M2610 1645 c0 -14 -6 -34 -12 -46 -19 -31 12 -49 84 -49 l58 0 -1 50
c-1 28 -5 52 -8 54 -3 2 -32 7 -63 10 -57 7 -58 7 -58 -19z"/>
<path d="M3245 1660 c-19 -8 -19 -8 5 -18 l25 -11 -22 -7 c-27 -7 -30 -19 -7
-28 8 -3 12 -10 9 -16 -4 -6 -11 -7 -17 -4 -6 4 -8 -1 -3 -15 5 -15 2 -21 -9
-21 -9 0 -16 -4 -16 -10 0 -16 18 -12 61 15 22 14 37 30 34 35 -3 6 1 7 9 4
25 -10 19 9 -16 48 -26 27 -38 33 -53 28z"/>
<path d="M4010 1661 c0 -5 11 -8 25 -8 13 0 22 3 19 8 -3 5 -14 9 -25 9 -10 0
-19 -4 -19 -9z"/>
<path d="M2811 1649 c-1 -9 -7 -22 -14 -28 -8 -6 -14 -24 -15 -41 -1 -27 3
-30 29 -30 24 0 29 4 28 23 -1 27 -27 98 -28 76z"/>
<path d="M2969 1622 c-3 -20 -2 -29 4 -23 5 5 7 19 5 32 -3 20 -5 19 -9 -9z"/>
<path d="M4081 1604 c0 -11 3 -14 6 -6 3 7 2 16 -1 19 -3 4 -6 -2 -5 -13z"/>
<path d="M4160 1595 c-7 -9 -11 -17 -9 -20 3 -2 10 5 17 15 14 24 10 26 -8 5z"/>
<path d="M4350 1567 c0 -2 14 -13 30 -25 35 -26 40 -22 8 8 -19 18 -38 26 -38
17z"/>
<path d="M2468 1554 c15 -7 16 -35 1 -31 -14 3 -19 -42 -6 -50 5 -3 3 -9 -4
-14 -17 -10 -6 -21 39 -39 42 -16 50 -9 58 62 6 56 6 57 -20 62 -50 11 -81 15
-68 10z"/>
<path d="M2938 1548 c-44 -8 -58 -14 -58 -27 0 -10 9 -17 25 -19 18 -1 23 2
19 13 -4 8 -2 15 4 15 5 0 12 -13 15 -30 6 -29 39 -70 56 -70 5 0 14 7 21 15
10 12 9 20 -4 40 -9 14 -14 30 -11 35 3 6 1 10 -6 10 -8 0 -8 4 1 15 7 8 9 14
4 14 -5 -1 -35 -6 -66 -11z m40 -44 c-10 -10 -28 6 -28 24 0 15 1 15 17 -1 9
-9 14 -19 11 -23z m25 -21 c-7 -3 -10 -12 -7 -21 5 -15 4 -15 -6 1 -13 20 -4
41 13 30 8 -5 8 -8 0 -10z"/>
<path d="M3266 1515 c-38 -25 -75 -45 -82 -45 -7 0 -16 -4 -19 -10 -3 -5 -14
-10 -24 -10 -24 0 -47 -26 -30 -32 13 -4 16 -14 25 -90 3 -27 8 -48 11 -48 2
0 27 10 54 21 50 22 57 35 39 70 -7 13 -7 19 0 19 5 0 10 -7 10 -15 0 -8 6
-15 14 -15 8 0 16 -5 18 -12 5 -15 103 45 112 68 3 9 -1 22 -9 30 -8 9 -15 21
-16 27 -1 7 -2 19 -3 27 -2 8 -3 25 -4 38 -3 32 -19 28 -96 -23z m95 -88 c-10
-9 -11 -8 -5 6 3 10 9 15 12 12 3 -3 0 -11 -7 -18z m-170 -58 c-2 -8 -3 -22
-3 -31 0 -10 -2 -18 -6 -18 -14 0 -32 39 -26 55 8 20 41 14 35 -6z m39 -29 c0
-5 -4 -10 -10 -10 -5 0 -10 5 -10 10 0 6 5 10 10 10 6 0 10 -4 10 -10z"/>
<path d="M4496 1513 c-4 -16 -10 -37 -13 -47 -4 -15 -1 -18 11 -13 13 5 15 2
10 -21 -3 -16 -2 -22 3 -15 6 8 14 9 23 3 13 -8 13 -10 1 -10 -10 0 -5 -10 14
-30 16 -16 25 -30 21 -30 -4 0 -1 -6 6 -14 9 -10 15 -11 20 -2 4 6 12 -2 19
-21 6 -18 14 -31 19 -28 4 2 12 -7 19 -21 10 -23 31 -25 31 -3 0 6 -4 7 -10 4
-5 -3 -10 1 -10 10 0 20 -29 74 -51 95 -15 15 -31 45 -34 65 0 6 -6 9 -13 8
-6 -2 -9 4 -5 12 5 15 -35 85 -48 85 -4 0 -10 -12 -13 -27z"/>
<path d="M2585 1475 c-5 -36 -4 -60 3 -67 6 -6 41 -13 79 -15 l69 -5 -2 68 -1
69 -71 3 -70 3 -7 -56z"/>
<path d="M2790 1520 c-11 -7 -7 -10 18 -10 17 0 32 5 32 10 0 13 -30 13 -50 0z"/>
<path d="M3190 1516 c0 -9 5 -16 10 -16 6 0 10 4 10 9 0 6 -4 13 -10 16 -5 3
-10 -1 -10 -9z"/>
<path d="M4082 1518 c2 -6 11 -13 19 -16 11 -3 11 -1 -1 8 -12 10 -11 11 8 7
12 -3 20 -1 16 4 -8 13 -46 11 -42 -3z"/>
<path d="M3087 1513 c-7 -12 -1 -58 7 -57 59 13 94 60 39 53 -5 -1 -7 -6 -5
-12 2 -6 -5 -3 -16 6 -11 10 -22 15 -25 10z"/>
<path d="M2790 1480 c0 -5 5 -10 10 -10 6 0 10 5 10 10 0 6 -4 10 -10 10 -5 0
-10 -4 -10 -10z"/>
<path d="M4245 1480 c-3 -5 -1 -10 4 -10 6 0 11 5 11 10 0 6 -2 10 -4 10 -3 0
-8 -4 -11 -10z"/>
<path d="M4175 1471 c-3 -5 -1 -12 5 -16 5 -3 10 1 10 9 0 18 -6 21 -15 7z"/>
<path d="M4200 1451 c0 -11 39 -41 53 -41 13 0 -12 29 -35 41 -12 6 -18 6 -18
0z"/>
<path d="M2818 1423 c7 -3 16 -2 19 1 4 3 -2 6 -13 5 -11 0 -14 -3 -6 -6z"/>
<path d="M3050 1400 c0 -7 -13 -8 -35 -4 -23 4 -35 2 -35 -5 0 -6 5 -11 10
-11 6 0 10 -7 10 -15 0 -9 10 -15 23 -16 21 -1 19 -2 -22 -15 -11 -3 -11 -7
-1 -20 16 -19 6 -29 -45 -47 -23 -8 -41 -22 -43 -31 -3 -16 2 -17 41 -12 25 4
64 13 86 21 42 15 44 15 61 15 6 0 10 11 10 24 0 14 -4 28 -10 31 -5 3 -10 14
-10 24 0 21 -22 71 -32 71 -5 0 -8 -5 -8 -10z"/>
<path d="M2445 1390 c-3 -5 -2 -10 3 -10 6 0 8 -9 5 -21 -4 -15 0 -22 16 -26
11 -3 21 -12 21 -20 0 -8 -5 -11 -12 -7 -10 5 -10 4 0 -7 21 -23 46 2 50 48 2
35 -1 41 -20 47 -34 9 -56 7 -63 -4z"/>
<path d="M4177 1393 c-13 -12 -7 -22 10 -16 12 5 15 2 10 -9 -4 -11 8 -28 35
-52 22 -20 44 -36 49 -36 5 0 9 -4 9 -10 0 -17 19 -11 30 9 10 21 3 54 -10 46
-4 -3 -13 2 -20 10 -7 8 -17 15 -23 15 -5 0 -25 11 -43 25 -36 27 -38 28 -47
18z"/>
<path d="M4279 1386 c17 -21 51 -40 51 -29 0 5 -15 17 -32 28 -29 17 -31 17
-19 1z"/>
<path d="M2589 1373 c-4 -8 -7 -25 -8 -43 0 -11 -7 -20 -15 -20 -29 0 -25 -18
13 -58 33 -34 47 -41 93 -47 l55 -7 5 31 c3 18 2 34 -2 36 -4 2 -4 26 0 52 5
26 7 49 6 49 -3 3 -146 10 -147 7z"/>
<path d="M4450 1356 c0 -12 63 -97 78 -106 12 -6 13 -9 3 -10 -22 0 8 -30 30
-30 11 0 19 -6 19 -13 0 -7 9 -18 20 -25 18 -11 20 -10 20 12 0 17 -12 34 -35
52 -33 25 -34 28 -18 40 17 12 17 14 -1 31 -19 17 -19 17 -6 0 12 -16 12 -20
-1 -28 -22 -14 -29 -11 -29 12 0 16 -4 19 -20 14 -16 -5 -19 -3 -13 11 4 11 2
15 -4 11 -6 -4 -13 2 -16 13 -4 17 -27 30 -27 16z"/>
<path d="M3266 1304 c-65 -34 -85 -48 -75 -55 8 -5 9 -9 3 -9 -26 0 1 -152 30
-163 12 -5 89 26 113 45 8 6 9 19 3 41 l-9 32 22 -28 c20 -24 25 -26 41 -14
15 11 17 17 7 35 -9 17 -9 22 0 22 8 0 10 13 5 42 -6 39 -34 99 -46 97 -3 0
-45 -20 -94 -45z"/>
<path d="M2783 1276 c-4 -6 -9 -26 -10 -45 l-2 -33 54 4 c63 5 69 9 61 36 -8
24 -93 56 -103 38z"/>
<path d="M4356 1268 c-26 -15 -19 -52 14 -77 17 -12 36 -19 42 -15 7 5 8 3 4
-5 -9 -14 10 -37 78 -95 28 -22 47 -33 43 -24 -4 13 -2 15 11 11 14 -6 15 -4
5 9 -7 8 -10 18 -6 22 4 4 -1 4 -11 0 -15 -6 -17 -3 -11 14 4 14 2 22 -5 22
-7 0 -9 8 -5 23 6 18 5 20 -6 10 -17 -17 -29 -16 -29 2 0 8 -4 15 -10 15 -5 0
-10 8 -11 18 -1 26 -82 82 -103 70z"/>
<path d="M4590 1260 c0 -5 5 -10 10 -10 6 0 10 5 10 10 0 6 -4 10 -10 10 -5 0
-10 -4 -10 -10z"/>
<path d="M3020 1214 c-25 -7 -57 -13 -71 -13 -14 -1 -28 -4 -31 -7 -4 -3 -36
-6 -71 -7 -73 -2 -91 -12 -62 -33 17 -13 18 -16 5 -24 -8 -5 -19 -10 -23 -10
-5 0 -6 -4 -3 -8 2 -4 1 -14 -5 -22 -6 -11 -9 -1 -9 31 0 57 -12 69 -72 69
-53 0 -67 -15 -71 -73 -3 -41 -33 -69 -68 -63 -21 4 -28 0 -32 -16 -9 -32 -2
-36 64 -44 80 -9 67 -18 -22 -15 l-72 2 6 -56 c3 -31 11 -63 17 -71 10 -11 9
-15 -4 -20 -24 -9 -19 -23 7 -22 12 1 37 1 55 0 28 -2 32 -5 27 -21 -10 -34
30 -51 128 -53 48 -1 87 -5 87 -10 0 -4 -4 -8 -10 -8 -5 0 -10 -9 -10 -20 0
-11 5 -20 10 -20 16 0 11 -30 -6 -37 -8 -3 -13 -12 -10 -19 3 -7 1 -16 -5 -20
-6 -4 -4 -13 7 -25 12 -14 20 -16 25 -8 12 20 26 1 33 -46 4 -25 10 -45 14
-46 4 0 19 -3 34 -5 14 -2 29 0 33 6 3 5 1 10 -5 10 -6 0 -8 5 -5 10 9 15 25
12 25 -5 0 -8 6 -15 13 -15 19 0 40 41 41 83 1 29 -3 37 -16 37 -15 0 -17 8
-11 67 l6 66 -36 -6 c-20 -3 -39 -1 -42 4 -4 5 7 9 24 9 20 0 34 7 41 20 6 10
17 17 24 14 18 -7 26 25 12 48 -7 12 -5 27 8 55 10 21 24 55 32 76 l13 37 -57
0 c-51 0 -58 2 -59 20 -1 11 4 20 13 20 8 0 14 -7 14 -15 0 -18 -1 -18 58 -4
56 14 72 25 72 51 0 10 7 30 16 43 9 13 17 47 19 75 3 48 2 50 -24 49 -14 -1
-46 -7 -71 -15z m-100 -96 c0 -18 -2 -20 -9 -8 -6 8 -7 18 -5 22 9 14 14 9 14
-14z m-66 -37 c3 -5 -1 -14 -8 -20 -16 -13 -32 2 -21 19 8 12 22 13 29 1z m23
-97 c-3 -3 -12 -4 -19 -1 -8 3 -5 6 6 6 11 1 17 -2 13 -5z m-102 -14 c-3 -5
-12 -7 -20 -3 -21 7 -19 13 6 13 11 0 18 -4 14 -10z m195 -159 c0 -6 -4 -13
-10 -16 -5 -3 -10 1 -10 9 0 9 5 16 10 16 6 0 10 -4 10 -9z m-213 -43 c-3 -8
-6 -5 -6 6 -1 11 2 17 5 13 3 -3 4 -12 1 -19z"/>
<path d="M4700 1219 c0 -8 12 -22 26 -33 26 -18 26 -18 16 1 -6 11 -18 25 -26
33 -13 10 -16 10 -16 -1z"/>
<path d="M2190 1192 c0 -5 7 -15 15 -22 8 -7 15 -9 15 -6 0 4 -7 14 -15 22 -8
9 -15 11 -15 6z"/>
<path d="M2149 1169 c-8 -17 -8 -20 1 -14 9 5 10 2 6 -12 -7 -22 9 -40 37 -40
11 0 17 8 16 21 0 12 -3 15 -6 8 -4 -10 -8 -10 -19 -1 -10 8 -11 14 -4 19 12
7 3 40 -11 40 -4 0 -13 -10 -20 -21z"/>
<path d="M3141 1144 c0 -11 3 -14 6 -6 3 7 2 16 -1 19 -3 4 -6 -2 -5 -13z"/>
<path d="M4535 1150 c3 -5 8 -10 11 -10 2 0 4 5 4 10 0 6 -5 10 -11 10 -5 0
-7 -4 -4 -10z"/>
<path d="M4690 1140 c0 -5 5 -10 10 -10 6 0 10 5 10 10 0 6 -4 10 -10 10 -5 0
-10 -4 -10 -10z"/>
<path d="M3300 1083 c-69 -33 -66 -30 -52 -53 14 -23 5 -80 -13 -80 -11 0 -30
43 -27 61 0 3 -7 10 -17 16 -14 9 -23 8 -40 -3 -18 -13 -20 -23 -17 -68 2 -29
10 -66 19 -82 9 -16 21 -39 26 -52 12 -25 27 -24 83 4 15 8 31 13 35 12 20 -5
97 28 109 47 22 34 11 139 -21 186 -14 22 -26 39 -28 38 -1 0 -27 -12 -57 -26z
m-36 -175 c4 -17 2 -28 -4 -28 -5 0 -10 14 -10 32 0 36 4 35 14 -4z"/>
<path d="M4630 1094 c0 -9 53 -54 63 -54 4 0 7 5 7 10 0 6 -7 10 -15 10 -8 0
-20 9 -27 20 -12 19 -28 27 -28 14z"/>
<path d="M3136 1069 c-18 -22 -18 -22 5 -16 13 4 27 7 31 7 9 0 -2 30 -11 30
-4 0 -15 -10 -25 -21z"/>
<path d="M4565 1030 c-3 -5 1 -10 9 -10 9 0 16 5 16 10 0 6 -4 10 -9 10 -6 0
-13 -4 -16 -10z"/>
<path d="M1850 1020 c-13 -9 -13 -11 0 -20 21 -14 36 -12 50 5 8 9 9 15 2 15
-6 0 -14 -4 -17 -10 -10 -16 -25 -12 -19 5 7 17 4 18 -16 5z"/>
<path d="M4640 1023 c0 -6 8 -17 18 -24 16 -13 16 -13 2 6 -8 11 -16 22 -17
24 -2 2 -3 0 -3 -6z"/>
<path d="M4590 1009 c-14 -8 -7 -13 13 -10 5 1 6 -3 3 -8 -4 -5 -2 -12 4 -16
5 -3 10 3 10 14 0 25 -12 32 -30 20z"/>
<path d="M1813 971 c-12 -19 -8 -31 9 -31 5 0 6 4 3 10 -4 6 4 6 22 -1 l28
-10 -24 25 c-14 14 -25 26 -25 26 -1 0 -7 -9 -13 -19z"/>
<path d="M3072 953 c-4 -10 -20 -40 -36 -67 -28 -46 -29 -49 -12 -62 17 -12
17 -14 2 -29 -9 -9 -16 -18 -16 -21 0 -6 39 2 73 15 16 6 39 9 53 7 26 -5 31
7 12 29 -38 42 -43 53 -43 94 0 47 -19 67 -33 34z m53 -122 c10 -17 -12 -21
-25 -6 -10 12 -10 15 3 15 9 0 18 -4 22 -9z"/>
<path d="M4645 960 c3 -5 8 -10 11 -10 2 0 4 5 4 10 0 6 -5 10 -11 10 -5 0 -7
-4 -4 -10z"/>
<path d="M2404 946 c4 -10 2 -24 -4 -31 -8 -9 -8 -15 0 -20 5 -3 13 1 16 9 3
9 14 16 23 16 13 1 12 3 -4 12 -11 6 -24 16 -28 22 -5 7 -6 3 -3 -8z"/>
<path d="M1778 916 c-16 -23 -16 -24 1 -29 15 -3 17 0 13 16 -4 17 -1 19 17
14 18 -4 20 -3 10 9 -15 19 -21 17 -41 -10z"/>
<path d="M2312 914 c-7 -8 -10 -19 -6 -25 3 -6 -3 -19 -15 -30 -23 -22 -26
-35 -11 -44 6 -3 10 3 10 14 0 22 24 29 36 9 5 -7 3 -8 -5 -3 -9 5 -12 0 -9
-16 2 -19 11 -25 41 -30 20 -3 37 -2 37 3 0 4 -7 8 -15 8 -19 0 -19 27 -1 45
12 12 15 12 19 0 3 -7 1 -16 -6 -19 -7 -2 -4 -5 6 -5 10 -1 17 6 17 18 0 26
-25 33 -46 12 -18 -17 -19 -17 -30 3 -6 12 -7 33 -3 49 8 30 1 34 -19 11z"/>
<path d="M5060 922 c0 -15 74 -32 134 -32 65 0 73 12 17 28 -44 14 -151 16
-151 4z"/>
<path d="M5170 870 c0 -5 5 -10 10 -10 6 0 10 5 10 10 0 6 -4 10 -10 10 -5 0
-10 -4 -10 -10z"/>
<path d="M3366 839 c-69 -27 -81 -47 -50 -76 14 -13 28 -23 33 -23 4 0 17 -9
30 -21 12 -12 25 -18 28 -15 4 3 8 36 11 73 2 38 9 71 15 75 23 14 -17 6 -67
-13z"/>
<path d="M5152 820 c7 -10 14 -18 15 -16 6 6 -9 36 -18 36 -5 0 -4 -9 3 -20z"/>
<path d="M1393 823 c9 -2 25 -2 35 0 9 3 1 5 -18 5 -19 0 -27 -2 -17 -5z"/>
<path d="M1243 775 c-19 -21 -16 -27 7 -13 11 7 20 16 20 20 0 12 -14 9 -27
-7z"/>
<path d="M3205 780 c-4 -6 -1 -17 5 -25 17 -20 -6 -21 -25 -1 -12 11 -23 11
-77 -1 -94 -21 -94 -21 -75 -40 15 -15 15 -18 1 -34 -19 -21 -3 -62 21 -53 8
4 15 2 15 -4 0 -6 9 -8 21 -5 14 4 17 8 9 13 -9 6 -9 9 0 15 7 4 14 -1 17 -15
3 -13 11 -19 20 -16 8 3 11 1 8 -4 -3 -6 1 -10 10 -10 8 0 18 -7 21 -15 4 -8
10 -15 16 -15 5 0 6 4 3 10 -3 5 0 19 8 30 13 19 13 19 31 -1 9 -11 22 -32 29
-46 10 -22 16 -24 46 -19 19 3 38 9 44 15 9 9 -30 133 -45 139 -5 2 -5 9 -2
14 4 6 0 16 -8 22 -9 6 -17 20 -19 31 -5 22 -62 34 -74 15z m74 -81 c17 -38
12 -43 -27 -23 -38 19 -44 54 -9 54 15 0 26 -10 36 -31z"/>
<path d="M2272 749 c3 -8 11 -13 17 -11 6 1 16 3 22 5 24 5 18 -21 -6 -27 -18
-5 -25 -13 -25 -31 0 -13 -4 -26 -9 -29 -12 -8 -12 -86 0 -86 5 0 9 11 9 25 0
29 26 85 39 85 4 0 18 9 31 20 24 21 50 27 50 11 0 -5 -6 -12 -12 -14 -7 -3
-1 -6 14 -6 15 -1 30 3 33 9 3 6 -1 7 -9 4 -11 -4 -16 0 -16 14 0 27 -7 31
-81 39 -51 5 -61 4 -57 -8z"/>
<path d="M2685 710 c-4 -6 -11 -7 -17 -4 -6 4 -9 1 -7 -5 3 -7 9 -11 14 -9 13
4 26 -65 13 -73 -6 -4 -4 -16 7 -32 22 -34 45 -43 37 -15 -3 12 -1 19 4 16 12
-8 15 92 3 114 -11 20 -44 24 -54 8z"/>
<path d="M3350 698 c0 -15 4 -29 9 -33 17 -10 20 10 5 35 l-13 25 -1 -27z"/>
<path d="M2336 624 c-4 -14 -5 -28 -3 -31 3 -2 8 8 11 23 4 14 5 28 3 31 -3 2
-8 -8 -11 -23z"/>
<path d="M2372 633 c-7 -12 -12 -32 -11 -45 1 -20 3 -18 15 11 17 38 13 67 -4
34z"/>
<path d="M3372 631 c-11 -6 -10 -10 4 -15 20 -8 32 0 18 14 -5 5 -15 5 -22 1z"/>
<path d="M2418 600 c-4 -8 -7 -22 -7 -30 0 -8 -3 -29 -7 -46 -6 -31 -5 -32 36
-36 50 -5 54 -2 29 23 -11 11 -17 25 -13 31 5 7 2 9 -9 5 -12 -5 -17 2 -19 31
-2 22 -6 31 -10 22z"/>
<path d="M3020 585 c0 -9 7 -18 15 -21 8 -4 15 -13 15 -21 0 -12 3 -13 14 -4
7 6 14 23 14 36 0 21 -5 25 -29 25 -19 0 -29 -5 -29 -15z"/>
<path d="M3380 590 c0 -5 5 -10 10 -10 6 0 10 5 10 10 0 6 -4 10 -10 10 -5 0
-10 -4 -10 -10z"/>
<path d="M3128 573 c-17 -4 -45 -69 -34 -80 7 -8 96 7 96 16 0 14 -25 61 -35
64 -5 2 -18 2 -27 0z"/>
<path d="M3210 568 c0 -7 5 -20 10 -28 8 -12 10 -9 10 13 0 15 -4 27 -10 27
-5 0 -10 -6 -10 -12z"/>
<path d="M2260 535 c0 -8 2 -15 4 -15 2 0 6 7 10 15 3 8 1 15 -4 15 -6 0 -10
-7 -10 -15z"/>
<path d="M3290 510 c-28 -11 -46 -25 -48 -37 -3 -19 -40 -49 -49 -39 -3 3 0
13 7 21 20 24 0 38 -34 25 -15 -5 -38 -10 -51 -10 -37 0 -54 -24 -48 -67 5
-41 8 -84 11 -152 2 -34 5 -42 17 -37 10 4 15 -1 15 -15 0 -11 6 -19 13 -18 6
1 20 1 30 0 16 -1 16 -2 0 -19 -10 -11 -22 -16 -28 -13 -5 3 -2 -7 8 -22 9
-15 13 -27 7 -27 -5 0 -10 -7 -10 -15 0 -8 9 -15 20 -15 16 0 20 -7 20 -35 0
-32 2 -35 30 -35 21 0 30 5 30 16 0 9 9 18 20 21 18 5 20 14 20 74 l0 68 -32
3 c-28 3 -30 5 -13 12 11 4 27 11 35 15 8 4 33 8 55 10 40 2 99 29 96 44 0 4
-1 33 -2 65 -1 43 -3 51 -9 32 -6 -20 -8 -13 -10 30 0 30 -4 73 -8 95 -9 48
-25 52 -92 25z m87 -82 c-3 -8 -6 -5 -6 6 -1 11 2 17 5 13 3 -3 4 -12 1 -19z
m-167 -372 c0 -3 -4 -8 -10 -11 -5 -3 -10 -1 -10 4 0 6 5 11 10 11 6 0 10 -2
10 -4z"/>
<path d="M2413 448 c2 -7 12 -12 21 -12 9 1 16 -4 16 -12 0 -8 7 -14 15 -14 8
0 15 -7 15 -16 0 -14 -3 -14 -15 -4 -20 17 -29 7 -16 -18 10 -19 6 -32 -11
-32 -5 0 -8 8 -6 17 2 10 -4 19 -13 21 -14 2 -17 -6 -16 -46 1 -47 1 -48 20
-29 10 10 21 17 23 14 7 -7 -7 -37 -17 -37 -5 0 -9 -14 -9 -31 0 -26 3 -31 20
-26 13 3 18 1 13 -6 -4 -7 0 -8 12 -4 9 4 24 2 31 -4 11 -9 14 -8 14 4 0 8 5
17 12 19 8 3 8 9 1 23 -10 17 -11 17 -17 -3 -9 -27 -18 -28 -42 -1 -18 20 -18
21 1 35 22 16 35 18 35 4 0 -5 5 -10 10 -10 6 0 10 14 10 31 0 17 5 40 11 51
6 12 7 18 1 14 -14 -8 -23 36 -10 51 8 10 4 13 -18 14 -16 1 -32 1 -36 0 -4 0
-19 4 -34 9 -20 8 -25 7 -21 -2z"/>
<path d="M2270 446 c0 -2 9 -6 20 -9 11 -3 18 -1 14 4 -5 9 -34 13 -34 5z"/>
<path d="M2551 414 c0 -11 3 -14 6 -6 3 7 2 16 -1 19 -3 4 -6 -2 -5 -13z"/>
<path d="M2582 383 c-6 -2 -9 -9 -6 -14 3 -6 1 -16 -6 -24 -17 -20 -22 -65
-11 -94 5 -14 12 -35 17 -46 4 -11 8 -27 8 -35 1 -19 45 -26 146 -24 142 4
217 14 200 28 -8 6 -23 21 -33 32 -18 21 -17 21 12 18 25 -3 28 -1 24 17 -3
11 -12 23 -19 26 -8 3 -14 13 -15 22 0 13 -2 12 -10 -4 -8 -17 -9 -16 -6 8 4
22 1 27 -18 27 -15 0 -25 -8 -29 -22 -6 -19 -8 -20 -14 -7 -5 11 -17 16 -38
14 -39 -3 -59 8 -51 29 5 12 -4 20 -30 31 -20 9 -43 13 -50 11 -7 -3 -15 -1
-18 4 -6 11 -31 12 -53 3z m113 -33 c3 -5 2 -10 -4 -10 -5 0 -13 5 -16 10 -3
6 -2 10 4 10 5 0 13 -4 16 -10z"/>
<path d="M3492 345 c0 -16 2 -22 5 -12 2 9 2 23 0 30 -3 6 -5 -1 -5 -18z"/>
<path d="M2366 241 c-4 -7 -5 -15 -2 -18 9 -9 19 4 14 18 -4 11 -6 11 -12 0z"/>
<path d="M3365 203 c-11 -2 -27 -7 -35 -10 -8 -3 -19 -5 -23 -4 -13 2 -20 -30
-8 -42 8 -8 11 -7 11 6 0 9 4 17 8 17 5 0 7 -13 4 -30 -4 -28 -3 -30 28 -26
56 6 71 55 18 57 l-33 1 35 10 c65 18 60 36 -5 21z"/>
<path d="M2595 121 c-3 -5 -1 -12 5 -16 5 -3 10 1 10 9 0 18 -6 21 -15 7z"/>
<path d="M2680 122 c-48 -5 -72 -33 -68 -80 l3 -37 178 -2 c151 -1 176 1 166
13 -6 7 -9 20 -6 28 4 9 -2 17 -14 21 -22 7 -25 25 -7 43 9 9 7 12 -12 14 -51
3 -206 3 -240 0z m-20 -26 c0 -3 -4 -8 -10 -11 -5 -3 -10 -1 -10 4 0 6 5 11
10 11 6 0 10 -2 10 -4z m110 -6 c0 -5 -4 -10 -9 -10 -6 0 -13 5 -16 10 -3 6 1
10 9 10 9 0 16 -4 16 -10z"/>
<path d="M2516 104 c-9 -25 -2 -26 17 -4 13 16 14 20 3 20 -8 0 -17 -7 -20
-16z"/>
<path d="M3320 80 c0 -5 5 -10 10 -10 6 0 10 5 10 10 0 6 -4 10 -10 10 -5 0
-10 -4 -10 -10z"/>
<path d="M3350 74 c0 -8 5 -12 10 -9 6 3 10 10 10 16 0 5 -4 9 -10 9 -5 0 -10
-7 -10 -16z"/>
</g>
</svg>
